<?xml version="1.0" encoding="UTF-8" standalone="no"?>
<svg width="346px" height="40px" viewBox="0 0 346 40" version="1.1" xmlns="http://www.w3.org/2000/svg" xmlns:xlink="http://www.w3.org/1999/xlink">
    <!-- Generator: Sketch 41.2 (35397) - http://www.bohemiancoding.com/sketch -->
    <title>pagerank_scale</title>
    <desc>Created with Sketch.</desc>
    <defs>
        <linearGradient x1="100%" y1="50%" x2="0%" y2="50%" id="linearGradient-1">
            <stop stop-color="#5201BB" offset="0%"></stop>
            <stop stop-color="#6B01A0" offset="6.10308959%"></stop>
            <stop stop-color="#840185" offset="13.9722943%"></stop>
            <stop stop-color="#AA025C" offset="24.3476106%"></stop>
            <stop stop-color="#C8023A" offset="33.8069049%"></stop>
            <stop stop-color="#EF0312" offset="44.5228026%"></stop>
            <stop stop-color="#FF1E00" offset="55.2238%"></stop>
            <stop stop-color="#FF5000" offset="65.6885189%"></stop>
            <stop stop-color="#FF8500" offset="75.6054694%"></stop>
            <stop stop-color="#FFA800" offset="83.3995878%"></stop>
            <stop stop-color="#FFD100" offset="91.505655%"></stop>
            <stop stop-color="#FFFE00" offset="100%"></stop>
        </linearGradient>
    </defs>
    <g id="Page-1" stroke="none" stroke-width="1" fill="none" fill-rule="evenodd">
        <g id="Artboard" transform="translate(-127.000000, -324.000000)">
            <g id="pagerank_scale" transform="translate(127.000000, 324.000000)">
                <rect id="Rectangle" fill="url(#linearGradient-1)" x="0" y="16" width="346" height="24"></rect>
                <path d="M12.9233304,27.2734375 C12.9233304,29.2474057 12.6121356,30.7213493 11.9897366,31.6953125 C11.3673377,32.6692757 10.4155243,33.15625 9.13426786,33.15625 C7.90509505,33.15625 6.97020856,32.6575571 6.32958036,31.6601562 C5.68895216,30.6627554 5.36864286,29.2005305 5.36864286,27.2734375 C5.36864286,25.2838442 5.67853559,23.8072965 6.29833036,22.84375 C6.91812513,21.8802035 7.86342817,21.3984375 9.13426786,21.3984375 C10.3738574,21.3984375 11.3152542,21.9010366 11.9584866,22.90625 C12.601719,23.9114634 12.9233304,25.367178 12.9233304,27.2734375 Z M6.68114286,27.2734375 C6.68114286,28.9349041 6.87645341,30.1445275 7.26708036,30.9023438 C7.65770731,31.66016 8.28009692,32.0390625 9.13426786,32.0390625 C9.99885552,32.0390625 10.6251513,31.6549518 11.0131741,30.8867188 C11.4011969,30.1184857 11.5952054,28.9140707 11.5952054,27.2734375 C11.5952054,25.6328043 11.4011969,24.4309934 11.0131741,23.6679688 C10.6251513,22.9049441 9.99885552,22.5234375 9.13426786,22.5234375 C8.28009692,22.5234375 7.65770731,22.8997358 7.26708036,23.6523438 C6.87645341,24.4049517 6.68114286,25.6119709 6.68114286,27.2734375 Z" id="0" fill="#000000"></path>
                <path d="M336.157705,33 L334.89208,33 L334.89208,24.859375 C334.89208,24.1822883 334.912913,23.5416697 334.95458,22.9375 C334.845205,23.0468755 334.72281,23.1614577 334.587393,23.28125 C334.451976,23.4010423 333.83219,23.9088497 332.728018,24.8046875 L332.040518,23.9140625 L335.063955,21.578125 L336.157705,21.578125 L336.157705,33 Z" id="1" fill="#FFFFFF"></path>
                <path d="M12.4921875,3.859375 C12.4921875,4.96354719 12.1171912,5.80989289 11.3671875,6.3984375 C10.6171838,6.98698211 9.55469437,7.28125 8.1796875,7.28125 L6.4140625,7.28125 L6.4140625,12 L5.6171875,12 L5.6171875,0.578125 L8.4140625,0.578125 C11.1328261,0.578125 12.4921875,1.67186406 12.4921875,3.859375 Z M6.4140625,6.59375 L7.984375,6.59375 C9.27083977,6.59375 10.200518,6.38151254 10.7734375,5.95703125 C11.346357,5.53254996 11.6328125,4.84375477 11.6328125,3.890625 C11.6328125,3.01041227 11.3619819,2.35807504 10.8203125,1.93359375 C10.2786431,1.50911246 9.44010984,1.296875 8.3046875,1.296875 L6.4140625,1.296875 L6.4140625,6.59375 Z M19.8796875,7.96875 L15.2390625,7.96875 L13.6453125,12 L12.7625,12 L17.35625,0.53125 L17.8640625,0.53125 L22.3640625,12 L21.465625,12 L19.8796875,7.96875 Z M15.528125,7.25 L19.6140625,7.25 L18.059375,3.1328125 C17.929166,2.80989422 17.7729176,2.36198203 17.590625,1.7890625 C17.4499993,2.289065 17.296355,2.74218547 17.1296875,3.1484375 L15.528125,7.25 Z M28.353125,6.2421875 L32.5640625,6.2421875 L32.5640625,11.453125 C31.4598903,11.9218773 30.2177153,12.15625 28.8375,12.15625 C27.0354077,12.15625 25.6539111,11.6471405 24.6929688,10.6289062 C23.7320265,9.61067199 23.2515625,8.16928016 23.2515625,6.3046875 C23.2515625,5.14322336 23.4898414,4.11328574 23.9664063,3.21484375 C24.4429712,2.31640176 25.125256,1.62239828 26.0132813,1.1328125 C26.9013066,0.643226719 27.9208276,0.3984375 29.071875,0.3984375 C30.3166729,0.3984375 31.4338493,0.627601875 32.4234375,1.0859375 L32.103125,1.8046875 C31.1135368,1.34635187 30.0875053,1.1171875 29.025,1.1171875 C27.5197842,1.1171875 26.3257857,1.5820266 25.4429688,2.51171875 C24.5601519,3.4414109 24.11875,4.69530461 24.11875,6.2734375 C24.11875,7.99219609 24.5380167,9.28515191 25.3765625,10.1523438 C26.2151084,11.0195356 27.4468669,11.453125 29.071875,11.453125 C30.1239636,11.453125 31.0171839,11.304689 31.7515625,11.0078125 L31.7515625,6.9921875 L28.353125,6.9921875 L28.353125,6.2421875 Z M41.8734376,12 L35.6312501,12 L35.6312501,0.578125 L41.8734376,0.578125 L41.8734376,1.3125 L36.4281251,1.3125 L36.4281251,5.6328125 L41.5687501,5.6328125 L41.5687501,6.3671875 L36.4281251,6.3671875 L36.4281251,11.265625 L41.8734376,11.265625 L41.8734376,12 Z M45.4562501,7.0234375 L45.4562501,12 L44.6593751,12 L44.6593751,0.578125 L47.3781251,0.578125 C48.7947988,0.578125 49.8416634,0.839841133 50.5187501,1.36328125 C51.1958368,1.88672137 51.5343751,2.67447391 51.5343751,3.7265625 C51.5343751,4.49219133 51.3325542,5.1380182 50.9289063,5.6640625 C50.5252585,6.1901068 49.9119834,6.56770719 49.0890626,6.796875 L52.1906251,12 L51.2375001,12 L48.2921876,7.0234375 L45.4562501,7.0234375 Z M45.4562501,6.3359375 L47.6359376,6.3359375 C48.5994841,6.3359375 49.3468724,6.1210959 49.8781251,5.69140625 C50.4093777,5.2617166 50.6750001,4.62760836 50.6750001,3.7890625 C50.6750001,2.91926648 50.414586,2.28646031 49.8937501,1.890625 C49.3729141,1.49478969 48.5239643,1.296875 47.3468751,1.296875 L45.4562501,1.296875 L45.4562501,6.3359375 Z M59.8671876,7.96875 L55.2265626,7.96875 L53.6328126,12 L52.7500001,12 L57.3437501,0.53125 L57.8515626,0.53125 L62.3515626,12 L61.4531251,12 L59.8671876,7.96875 Z M55.5156251,7.25 L59.6015626,7.25 L58.0468751,3.1328125 C57.9166661,2.80989422 57.7604177,2.36198203 57.5781251,1.7890625 C57.4374994,2.289065 57.2838551,2.74218547 57.1171876,3.1484375 L55.5156251,7.25 Z M72.4734376,12 L71.6687501,12 L64.9031251,1.859375 L64.8406251,1.859375 C64.9031254,3.06771437 64.9343751,3.97916359 64.9343751,4.59375 L64.9343751,12 L64.1687501,12 L64.1687501,0.578125 L64.9656251,0.578125 L71.7234376,10.703125 L71.7703126,10.703125 C71.7234374,9.76562031 71.7000001,8.87500422 71.7000001,8.03125 L71.7000001,0.578125 L72.4734376,0.578125 L72.4734376,12 Z M83.5875001,12 L82.6109376,12 L78.2281251,5.96875 L76.7046876,7.3125 L76.7046876,12 L75.9078126,12 L75.9078126,0.578125 L76.7046876,0.578125 L76.7046876,6.515625 L77.9703126,5.25 L82.4468751,0.578125 L83.4625001,0.578125 L78.7828126,5.40625 L83.5875001,12 Z" id="PAGERANK" fill-opacity="0.54" fill="#000000"></path>
            </g>
        </g>
    </g>
</svg>