<?xml version="1.0" encoding="UTF-8" standalone="no"?>
<svg width="100px" height="101px" viewBox="0 0 100 101" version="1.1" xmlns="http://www.w3.org/2000/svg" xmlns:xlink="http://www.w3.org/1999/xlink">
    <!-- Generator: Sketch 40.1 (33804) - http://www.bohemiancoding.com/sketch -->
    <title>Facebook-color</title>
    <desc>Created with Sketch.</desc>
    <defs></defs>
    <g id="Page-1" stroke="none" stroke-width="1" fill="none" fill-rule="evenodd">
        <g id="Press---Round3" transform="translate(-363.000000, -472.000000)" fill="#5000BE">
            <g id="sidenav" transform="translate(150.000000, 478.649045)">
                <g id="content">
                    <g id="contact">
                        <g id="icons-copy" transform="translate(251.000000, 30.000000)">
                            <path d="M-32.4807677,64 C-35.5298486,64 -38,61.5283157 -38,58.4804225 L-38,-30.4808105 C-38,-33.5294798 -35.5294606,-36 -32.4807677,-36 L56.4811557,-36 C59.5290726,-36 62,-33.5294798 62,-30.4808105 L62,58.4804225 C62,61.5287037 59.5286846,64 56.4811557,64 L30.9985527,64 L30.9985527,25.2744889 L43.9969191,25.2744889 L45.9432401,10.1824701 L30.9985527,10.1824701 L30.9985527,0.547169592 C30.9985527,-3.82231811 32.2118991,-6.79997982 38.4776868,-6.79997982 L46.4693986,-6.803472 L46.4693986,-20.3018947 C45.0872624,-20.4858159 40.343299,-20.8967286 34.8240667,-20.8967286 C23.301738,-20.8967286 15.4132401,-13.863487 15.4132401,-0.947481559 L15.4132401,10.1824701 L2.38150374,10.1824701 L2.38150374,25.2744889 L15.4132401,25.2744889 L15.4132401,64 L-32.4807677,64 Z" id="Facebook"></path>
                        </g>
                    </g>
                </g>
            </g>
        </g>
    </g>
</svg>