<?xml version="1.0" encoding="UTF-8" standalone="no"?>
<svg width="100px" height="83px" viewBox="0 0 100 83" version="1.1" xmlns="http://www.w3.org/2000/svg" xmlns:xlink="http://www.w3.org/1999/xlink">
    <!-- Generator: Sketch 40.1 (33804) - http://www.bohemiancoding.com/sketch -->
    <title>Twitter-color</title>
    <desc>Created with Sketch.</desc>
    <defs></defs>
    <g id="Page-1" stroke="none" stroke-width="1" fill="none" fill-rule="evenodd">
        <g id="Press---Round3" transform="translate(-396.000000, -483.000000)" fill="#5000BE">
            <g id="sidenav" transform="translate(150.000000, 478.649045)">
                <g id="content">
                    <g id="contact">
                        <g id="icons-copy" transform="translate(284.000000, 30.000000)">
                            <path d="M62,-15.2926688 C58.3256442,-13.6461538 54.3695486,-12.5326833 50.219757,-12.0351752 C54.4575923,-14.5937884 57.7093385,-18.6508487 59.2412984,-23.4837848 C55.2734636,-21.1146984 50.8888889,-19.3911882 46.2049657,-18.4672445 C42.4719141,-22.4887685 37.1364677,-25 31.2316722,-25 C19.9092563,-25 10.7233668,-15.7309498 10.7233668,-4.30010834 C10.7233668,-2.67728422 10.8994541,-1.10184182 11.2516288,0.41437342 C-5.79949522,-0.450343084 -20.9136585,-8.68291802 -31.0386805,-21.2213073 C-32.8054235,-18.1533406 -33.8149909,-14.5937884 -33.8149909,-10.8032503 C-33.8149909,-3.62491874 -30.1934613,2.71238714 -24.6877971,6.42592994 C-28.0451958,6.32524377 -31.2147679,5.38353196 -33.9852087,3.84362586 L-33.9852087,4.09830264 C-33.9852087,14.1313832 -26.9123672,22.5001806 -17.5210424,24.3954496 C-19.2408288,24.8811123 -21.0545284,25.1239437 -22.9269238,25.1239437 C-24.2475788,25.1239437 -25.538886,24.9995666 -26.7891061,24.7567353 C-24.1771439,32.9774648 -16.6053883,38.9653304 -7.62493397,39.1252438 C-14.6449492,44.6807512 -23.4962728,47.9915493 -33.104772,47.9915493 C-34.759993,47.9915493 -36.3976052,47.8967858 -38,47.7072589 C-28.9197629,53.5707476 -18.1314785,57 -6.5508012,57 C31.1905852,57 51.8221518,25.4615385 51.8221518,-1.89548573 C51.8221518,-2.79573853 51.8045431,-3.69599133 51.7693256,-4.57847598 C55.7782473,-7.49837486 59.2589071,-11.1408451 62,-15.2926688" id="Twitter"></path>
                        </g>
                    </g>
                </g>
            </g>
        </g>
    </g>
</svg>