<?xml version="1.0" encoding="UTF-8" standalone="no"?>
<svg width="960px" height="89px" viewBox="0 0 960 89" version="1.1" xmlns="http://www.w3.org/2000/svg" xmlns:xlink="http://www.w3.org/1999/xlink">
    <!-- Generator: Sketch 40.1 (33804) - http://www.bohemiancoding.com/sketch -->
    <title>logo</title>
    <desc>Created with Sketch.</desc>
    <defs>
        <polygon id="path-1" points="0.4668 88.1632653 88.8532 88.1632653 88.8532 0.541926089 0.4668 0.541926089 0.4668 88.1632653"></polygon>
        <polygon id="path-3" points="0 88.1632653 960 88.1632653 960 0.54168781 0 0.54168781"></polygon>
    </defs>
    <g id="Page-1" stroke="none" stroke-width="1" fill="none" fill-rule="evenodd">
        <g id="logo-white" transform="translate(0.000000, -44.000000)">
            <g id="logo" transform="translate(0.000000, 44.000000)">
                <path d="M44.13096,0.794660783 L-0.00024,88.4162383 L16.40776,88.4162383 L23.91096,73.7692223 L64.47976,73.7692223 L71.85736,88.4162383 L88.26056,88.4162383 L44.13096,0.794660783 Z M44.13096,33.4952896 L57.10216,59.2524655 L31.16056,59.2524655 L44.13096,33.4952896 Z" id="Fill-1" fill="#FFFFFF"></path>
                <polygon id="Fill-2" fill="#FFFFFF" points="106.97544 0.794660783 106.97544 88.4162383 165.73384 88.4162383 165.73384 73.7692223 121.60184 73.7692223 121.60184 0.794660783"></polygon>
                <g id="Group-17" transform="translate(0.000000, 0.252576)">
                    <path d="M190.35024,13.4174959 C181.70224,22.0050745 177.37984,32.3169994 177.37984,44.3524766 C177.37984,56.4713514 181.70224,66.7856591 190.35024,75.2858687 C198.91184,83.8670932 209.29984,88.1632653 221.50864,88.1632653 C225.32144,88.1632653 229.01024,87.7049752 232.57344,86.7748924 C236.13344,85.8471925 239.48224,84.5239493 242.61904,82.7980143 C245.75344,81.0696966 248.65904,78.9895201 251.33184,76.5471594 C254.00224,74.1055929 256.35424,71.4146277 258.38864,68.463144 L258.38864,37.1532708 L221.50864,37.1532708 L221.50864,51.6755874 L243.63504,51.6755874 L243.63504,63.66738 C240.83904,66.7856591 237.55104,69.2033977 233.77984,70.9253613 C230.00784,72.6528847 225.91584,73.5162493 221.50864,73.5162493 C213.45264,73.5162493 206.50144,70.6982019 200.65264,65.0557529 C194.97104,59.2520684 192.13024,52.3507115 192.13024,44.3524766 C192.13024,36.3566244 194.97104,29.4949807 200.65264,23.7731054 C206.50144,18.0496415 213.45264,15.1855268 221.50864,15.1855268 C229.64864,15.1855268 236.55824,18.0496415 242.23664,23.7731054 L252.79504,13.4174959 C248.72464,9.3762824 244.01744,6.21987865 238.67824,3.94828461 C233.33504,1.67430778 227.61184,0.542482074 221.50864,0.542482074 C209.29984,0.542482074 198.91184,4.82753447 190.35024,13.4174959 L190.35024,13.4174959 Z" id="Fill-3" fill="#FFFFFF"></path>
                    <g id="Group-7" transform="translate(280.000000, 0.000000)">
                        <mask id="mask-2" fill="white">
                            <use xlink:href="#path-1"></use>
                        </mask>
                        <g id="Clip-6"></g>
                        <path d="M23.7396,65.0551969 C18.058,59.2523067 15.2196,52.3509498 15.2196,44.3527148 C15.2196,36.3568627 18.058,29.4944247 23.7396,23.7733436 C29.5908,18.0490855 36.5404,15.1849708 44.598,15.1849708 C52.6516,15.1849708 59.5612,18.0490855 65.326,23.7733436 C71.0916,29.4944247 73.974,36.3568627 73.974,44.3527148 C73.974,52.3509498 71.0916,59.2523067 65.326,65.0551969 C59.5612,70.6976459 52.6516,73.5156933 44.598,73.5156933 C36.5404,73.5156933 29.5908,70.6976459 23.7396,65.0551969 M13.4372,13.4177341 C4.79,22.0053127 0.4668,32.3172377 0.4668,44.3527148 C0.4668,56.4715896 4.7892,66.7851031 13.4372,75.2853127 C21.9988,83.8673315 32.3876,88.1635036 44.598,88.1635036 C56.8044,88.1635036 67.1908,83.8673315 75.7564,75.2853127 C84.486,66.8669123 88.8532,56.5565758 88.8532,44.3527148 C88.8532,32.3172377 84.486,22.0053127 75.7564,13.4177341 C67.1908,4.82777275 56.8044,0.541926089 44.598,0.541926089 C32.3012,0.541926089 21.9148,4.82777275 13.4372,13.4177341" id="Fill-5" fill="#FFFFFF" mask="url(#mask-2)"></path>
                    </g>
                    <path d="M405.55424,44.2253944 L405.55424,15.1847325 L435.05664,15.1847325 C439.04304,15.1847325 442.47584,16.6191726 445.36064,19.4745505 C448.24144,22.3426365 449.68304,25.7492333 449.68304,29.7030778 C449.68304,33.746674 448.24064,37.1985438 445.36064,40.06107 C442.47584,42.922802 439.04304,44.3524766 435.05664,44.3524766 L405.55424,44.2253944 Z M390.92944,0.54168781 L390.92944,88.1632653 L405.55424,88.1632653 L405.55424,59.0002868 L430.47744,59.0002868 L447.52304,88.1632653 L464.43424,88.1632653 L446.24864,56.7278985 C451.50544,54.6223056 455.82864,51.129134 459.22144,46.2452068 C462.69584,41.2818533 464.43424,35.7688693 464.43424,29.7030778 C464.43424,21.7096084 461.55424,14.851936 455.78864,9.12370656 C450.01904,3.39944843 443.11424,0.54168781 435.05584,0.54168781 L390.92944,0.54168781 L390.92944,0.54168781 Z" id="Fill-8" fill="#FFFFFF"></path>
                    <mask id="mask-4" fill="white">
                        <use xlink:href="#path-3"></use>
                    </mask>
                    <g id="Clip-11"></g>
                    <polygon id="Fill-10" fill="#FFFFFF" mask="url(#mask-4)" points="489.8696 88.1632653 504.4928 88.1632653 504.4928 0.54168781 489.8696 0.54168781"></polygon>
                    <polygon id="Fill-12" fill="#FFFFFF" mask="url(#mask-4)" points="526.5688 0.541926089 526.5688 15.1849708 556.0728 15.1849708 556.0728 88.1635036 570.824 88.1635036 570.824 15.1849708 600.2024 15.1849708 600.2024 0.541926089"></polygon>
                    <polygon id="Fill-13" fill="#FFFFFF" mask="url(#mask-4)" points="681.03464 0.541926089 681.03464 37.0280154 636.90344 37.0280154 636.90344 0.541926089 622.27864 0.541926089 622.27864 88.1635036 636.90344 88.1635036 636.90344 51.6750314 681.03464 51.6750314 681.03464 88.1635036 695.78584 88.1635036 695.78584 0.541926089"></polygon>
                    <polygon id="Fill-14" fill="#FFFFFF" mask="url(#mask-4)" points="765.35008 44.352556 721.21888 0.541767237 721.21888 88.1633447 735.84368 88.1633447 735.84368 35.7689487 765.35008 65.0550381 794.72608 35.7689487 794.72608 88.1633447 809.60768 88.1633447 809.60768 0.541767237"></polygon>
                    <polygon id="Fill-15" fill="#FFFFFF" mask="url(#mask-4)" points="835.0408 88.1632653 849.6656 88.1632653 849.6656 0.54168781 835.0408 0.54168781"></polygon>
                    <polygon id="Fill-16" fill="#FFFFFF" mask="url(#mask-4)" points="871.74176 88.1632653 886.00176 88.1632653 893.04096 74.2430006 898.98656 88.1632653 911.68656 88.1632653 900.29696 60.1106674 915.87136 28.9779151 931.44496 60.1106674 920.05296 88.1632653 932.75536 88.1632653 938.70096 74.2430006 945.74256 88.1632653 960.00016 88.1632653 915.87136 0.54168781"></polygon>
                </g>
            </g>
        </g>
    </g>
</svg>